<?xml version="1.0" encoding="utf-8"?>
<!-- Generator: Adobe Illustrator 16.0.4, SVG Export Plug-In . SVG Version: 6.00 Build 0)  -->
<!DOCTYPE svg PUBLIC "-//W3C//DTD SVG 1.1//EN" "http://www.w3.org/Graphics/SVG/1.1/DTD/svg11.dtd">
<svg version="1.1" xmlns="http://www.w3.org/2000/svg" xmlns:xlink="http://www.w3.org/1999/xlink" x="0px" y="0px" width="240px"
	 height="160px" viewBox="0 0 240 160" enable-background="new 0 0 240 160" xml:space="preserve">
<g id="Layer_2">
</g>
<g id="Layer_1">
	<g>
		<g>
			<path fill="#FFFFFF" d="M20,5.777c7.842,0,14.223,6.381,14.223,14.223S27.842,34.223,20,34.223
				c-7.841,0-14.223-6.381-14.223-14.223S12.159,5.777,20,5.777 M20,4C11.164,4,4,11.164,4,20s7.164,16,16,16s16-7.164,16-16
				S28.836,4,20,4L20,4z"/>
		</g>
		<g>
			<polygon fill="#FFFFFF" points="28.205,22.564 26.898,23.869 20.004,16.965 13.101,23.867 11.796,22.562 20.004,14.352 			"/>
		</g>
	</g>
	<g>
		<g>
			<path fill="#FFFFFF" d="M74.223,20c0,7.842-6.381,14.223-14.223,14.223S45.777,27.842,45.777,20
				c0-7.841,6.381-14.223,14.223-14.223S74.223,12.159,74.223,20 M76,20c0-8.836-7.164-16-16-16s-16,7.164-16,16s7.164,16,16,16
				S76,28.836,76,20L76,20z"/>
		</g>
		<g>
			<polygon fill="#FFFFFF" points="57.436,28.205 56.131,26.898 63.035,20.004 56.133,13.101 57.438,11.796 65.648,20.004 			"/>
		</g>
	</g>
	<g>
		<g>
			<path fill="#FFFFFF" d="M100,34.223c-7.842,0-14.223-6.381-14.223-14.223S92.158,5.777,100,5.777S114.223,12.158,114.223,20
				S107.842,34.223,100,34.223 M100,36c8.836,0,16-7.164,16-16s-7.164-16-16-16s-16,7.164-16,16S91.164,36,100,36L100,36z"/>
		</g>
		<g>
			<polygon fill="#FFFFFF" points="91.795,17.436 93.102,16.131 99.996,23.035 106.9,16.133 108.203,17.438 99.996,25.648 			"/>
		</g>
	</g>
	<g>
		<g>
			<path fill="#FFFFFF" d="M125.777,20c0-7.842,6.381-14.223,14.223-14.223S154.223,12.159,154.223,20
				c0,7.84-6.381,14.222-14.223,14.222S125.777,27.84,125.777,20 M124,20C124,28.836,131.166,36,140,36c8.836,0,16-7.164,16-15.999
				c0-8.836-7.164-16-16-16C131.166,4,124,11.164,124,20L124,20z"/>
		</g>
		<g>
			<polygon fill="#FFFFFF" points="142.564,11.795 143.869,13.102 136.965,19.997 143.867,26.899 142.562,28.204 134.354,19.997 			
				"/>
		</g>
	</g>
	<g>
		<g>
			<path fill="#FFFFFF" d="M180.014,5.777c7.842,0,14.223,6.381,14.223,14.223s-6.381,14.223-14.223,14.223
				c-7.841,0-14.223-6.381-14.223-14.223S172.173,5.777,180.014,5.777 M180.014,4c-8.835,0-16,7.164-16,16s7.165,16,16,16
				c8.836,0,16-7.164,16-16S188.85,4,180.014,4L180.014,4z"/>
		</g>
		<polygon fill="#FFFFFF" points="188.248,13.095 186.943,11.789 180.041,18.693 173.148,11.789 171.842,13.093 178.74,20.003 
			171.842,26.905 173.145,28.211 180.047,21.308 186.939,28.212 188.248,26.907 181.348,19.997 		"/>
	</g>
	<path fill="#FFFFFF" d="M174.363,73.892l-2.191-2.211l11.607-11.673l-11.607-11.688l2.195-2.211l13.805,13.899L174.363,73.892z"/>
	<path fill="#FFFFFF" d="M225.81,46.108l2.19,2.211l-11.607,11.673L228,71.681l-2.196,2.211L212,59.992L225.81,46.108z"/>
	<g>
		<g>
			<polygon fill="#FFFFFF" points="28.205,62.564 26.898,63.869 20.004,56.965 13.101,63.867 11.796,62.562 20.004,54.352 			"/>
		</g>
	</g>
	<g>
		<g>
			<polygon fill="#FFFFFF" points="57.436,68.205 56.131,66.898 63.035,60.004 56.133,53.101 57.438,51.796 65.648,60.004 			"/>
		</g>
	</g>
	<g>
		<g>
			<polygon fill="#FFFFFF" points="91.795,57.436 93.102,56.131 99.996,63.035 106.9,56.133 108.203,57.438 99.996,65.648 			"/>
		</g>
	</g>
	<g>
		<g>
			<polygon fill="#FFFFFF" points="142.564,51.795 143.869,53.102 136.965,59.997 143.867,66.899 142.562,68.204 134.354,59.997 			
				"/>
		</g>
	</g>
	<g>
		<g>
			<path fill="#3AB665" d="M220,30.667c-5.881,0-10.667-4.786-10.667-10.667S214.119,9.333,220,9.333S230.667,14.119,230.667,20
				S225.881,30.667,220,30.667 M220,32c6.627,0,12-5.373,12-12s-5.373-12-12-12s-12,5.373-12,12S213.373,32,220,32L220,32z"/>
		</g>
		<g>
			<polygon fill="#3AB665" points="213.846,18.077 214.826,17.098 219.997,22.276 225.176,17.1 226.152,18.078 219.997,24.236 			
				"/>
		</g>
	</g>
	<path fill="#3AB665" d="M32.586,98.25c0.355-1.28,0.462-2.753,0.462-4.396c0-2.356-0.884-4.24-2.321-5.674
		c0.251-0.811,0.586-2.61-0.335-4.915c0,0-1.625-0.516-5.302,1.944c-1.44-0.359-2.973-0.538-4.508-0.538
		c-1.688,0-3.395,0.216-4.987,0.652c-3.793-2.588-5.468-2.058-5.468-2.058C9.033,86,9.709,88.025,9.914,88.526
		c-1.285,1.387-2.069,3.158-2.069,5.328c0,1.639,0.187,3.108,0.642,4.387l0.479,1.084c1.281,2.388,3.807,3.93,8.299,4.414
		c-0.638,0.429-1.288,1.157-1.552,2.39c-0.869,0.416-3.619,1.43-5.27-1.408c0,0-0.924-1.689-2.692-1.821
		c0,0-1.715-0.026-0.118,1.069c0,0,1.147,0.54,1.939,2.572c0,0,1.033,3.467,6.018,2.355v3.58c0,0-0.105,1.266-1.266,1.688
		c0,0-0.686,0.475,0.053,0.738c0,0,3.218,0.264,3.218-2.374v-3.904c0,0-0.127-1.549,0.633-2.087v6.413c0,0-0.053,1.53-0.844,2.11
		c0,0-0.528,0.949,0.633,0.686c0,0,2.216-0.316,2.322-2.901l0.05-6.49h0.532l0.051,6.49c0.106,2.585,2.322,2.901,2.322,2.901
		c1.16,0.264,0.633-0.686,0.633-0.686c-0.792-0.58-0.844-2.11-0.844-2.11v-6.357c0.76,0.592,0.633,2.031,0.633,2.031v3.904
		c0,2.638,3.219,2.374,3.219,2.374c0.738-0.264,0.053-0.738,0.053-0.738c-1.161-0.423-1.267-1.688-1.267-1.688v-5.118
		c0-1.997-0.84-3.054-1.662-3.611c4.791-0.475,7.09-2.021,8.15-4.425L32.586,98.25z M20.542,102.856
		c-5.222,0-9.455-0.786-9.455-5.833c0-1.208,0.595-2.331,1.614-3.261c1.7-1.552,4.577-0.73,7.841-0.73c3.25,0,6.117-0.83,7.82,0.711
		l0,0c1.032,0.936,1.636,2.064,1.636,3.281C29.999,102.702,25.765,102.856,20.542,102.856z"/>
	<path fill="#FFFFFF" d="M107.145,98.793c0.202-0.727,0.263-1.563,0.263-2.496c0-1.338-0.502-2.407-1.318-3.221
		c0.144-0.46,0.333-1.482-0.189-2.791c0,0-0.924-0.293-3.011,1.104c-0.817-0.204-1.688-0.305-2.56-0.305
		c-0.958,0-1.928,0.122-2.832,0.37c-2.154-1.469-3.104-1.168-3.104-1.168c-0.621,1.552-0.237,2.702-0.121,2.986
		c-0.729,0.788-1.175,1.793-1.175,3.025c0,0.93,0.106,1.765,0.364,2.49l0.272,0.616c0.728,1.356,2.161,2.232,4.712,2.506
		c-0.362,0.243-0.731,0.656-0.881,1.356c-0.494,0.236-2.055,0.812-2.992-0.8c0,0-0.524-0.959-1.528-1.034
		c0,0-0.974-0.015-0.067,0.607c0,0,0.651,0.306,1.101,1.461c0,0,0.586,1.968,3.417,1.337v2.033c0,0-0.06,0.718-0.719,0.958
		c0,0-0.39,0.269,0.03,0.42c0,0,1.827,0.149,1.827-1.349v-2.217c0,0-0.072-0.879,0.359-1.185v3.641c0,0-0.03,0.869-0.479,1.198
		c0,0-0.3,0.54,0.359,0.39c0,0,1.258-0.181,1.318-1.647l0.028-3.686h0.302l0.029,3.686c0.061,1.467,1.317,1.647,1.317,1.647
		c0.659,0.15,0.36-0.39,0.36-0.39c-0.449-0.329-0.48-1.198-0.48-1.198v-3.609c0.433,0.336,0.36,1.153,0.36,1.153v2.217
		c0,1.498,1.828,1.349,1.828,1.349c0.419-0.151,0.029-0.42,0.029-0.42c-0.659-0.24-0.719-0.958-0.719-0.958v-2.907
		c0-1.134-0.477-1.733-0.943-2.05c2.719-0.27,4.025-1.147,4.627-2.512L107.145,98.793z M100.307,101.408
		c-2.965,0-5.368-0.446-5.368-3.311c0-0.686,0.337-1.323,0.916-1.852c0.965-0.881,2.599-0.415,4.452-0.415
		c1.845,0,3.474-0.472,4.44,0.403l0,0c0.586,0.531,0.929,1.172,0.929,1.863C105.676,101.32,103.272,101.408,100.307,101.408z"/>
	<path fill="#3AB665" d="M72.448,85.708H47.552c-1.018,0-1.844,0.826-1.844,1.844v24.897c0,1.018,0.826,1.844,1.844,1.844h24.896
		c1.018,0,1.844-0.826,1.844-1.844V87.552C74.292,86.534,73.466,85.708,72.448,85.708z M70.028,100.408h-3.256v11.813h-4.881
		v-11.812h-2.438v-4.071h2.438v-2.445c0-3.32,1.377-5.295,5.29-5.295h3.256v4.072h-2.035c-1.523,0-1.624,0.568-1.624,1.63
		l-0.006,2.038h3.688L70.028,100.408z"/>
	<path fill="#FFFFFF" d="M145.657,92.485h-13.092c-0.536,0-0.97,0.434-0.97,0.97v13.092c0,0.535,0.434,0.97,0.97,0.97h13.092
		c0.536,0,0.97-0.435,0.97-0.97V93.455C146.627,92.919,146.193,92.485,145.657,92.485z M144.385,100.215h-1.713v6.212h-2.566v-6.212
		h-1.281v-2.141h1.281v-1.286c0-1.746,0.725-2.785,2.781-2.785h1.712v2.141h-1.07c-0.8,0-0.854,0.299-0.854,0.857l-0.003,1.071
		h1.939L144.385,100.215z"/>
	<path fill="#FFFFFF" d="M186.718,92.483h-13.092c-0.536,0-0.97,0.435-0.97,0.971v13.092c0,0.535,0.434,0.97,0.97,0.97h13.092
		c0.536,0,0.97-0.435,0.97-0.97V93.454C187.688,92.918,187.254,92.483,186.718,92.483z M176.157,105.483
		c-0.807,0-1.459-0.654-1.459-1.46c0-0.805,0.652-1.459,1.459-1.459s1.458,0.654,1.458,1.459
		C177.615,104.829,176.964,105.483,176.157,105.483z M179.819,105.494c0-1.378-0.534-2.672-1.502-3.644
		c-0.965-0.972-2.25-1.506-3.616-1.506v-2.106c3.983,0,7.225,3.255,7.225,7.256H179.819z M183.539,105.495
		c0-4.898-3.963-8.884-8.836-8.884v-2.108c6.034,0,10.943,4.932,10.943,10.992H183.539z"/>
	<path fill="#3AB665" d="M232.334,85.708h-24.668c-1.01,0-1.826,0.819-1.826,1.829v24.668c0,1.008,0.816,1.827,1.826,1.827h24.668
		c1.011,0,1.828-0.819,1.828-1.827V87.537C234.162,86.527,233.345,85.708,232.334,85.708z M212.436,110.203
		c-1.52,0-2.748-1.233-2.748-2.751c0-1.517,1.229-2.749,2.748-2.749c1.521,0,2.748,1.232,2.748,2.749
		C215.184,108.97,213.956,110.203,212.436,110.203z M219.336,110.224c0-2.597-1.006-5.035-2.83-6.866
		c-1.818-1.83-4.239-2.837-6.813-2.837v-3.969c7.506,0,13.612,6.133,13.612,13.672H219.336z M226.346,110.225
		c0-9.229-7.468-16.739-16.649-16.739v-3.973c11.37,0,20.62,9.292,20.62,20.711H226.346z"/>
	<path fill="#3AB666" d="M72.213,125.395H47.779c-1.168,0-2.117,0.926-2.117,2.065v24.541c0,1.142,0.948,2.069,2.117,2.069h24.436
		c1.169,0,2.124-0.928,2.124-2.069V127.46C74.337,126.32,73.384,125.395,72.213,125.395z M54.166,149.83h-4.254v-13.686h4.254
		V149.83z M52.039,134.273c-1.363,0-2.466-1.104-2.466-2.467c0-1.359,1.103-2.466,2.466-2.466c1.36,0,2.465,1.104,2.465,2.466
		C54.503,133.169,53.398,134.273,52.039,134.273z M70.097,149.83h-4.249v-6.654c0-1.588-0.031-3.629-2.21-3.629
		c-2.213,0-2.551,1.729-2.551,3.514v6.771h-4.252v-13.685h4.081v1.869h0.058c0.568-1.076,1.956-2.211,4.025-2.211
		c4.304,0,5.099,2.834,5.099,6.521L70.097,149.83L70.097,149.83z"/>
	<path fill="#3AB666" d="M33.92,131.098c-1.024,0.455-2.125,0.762-3.281,0.899c1.179-0.707,2.085-1.826,2.511-3.16
		c-1.104,0.655-2.326,1.13-3.627,1.388c-1.042-1.11-2.526-1.805-4.169-1.805c-3.155,0-5.712,2.557-5.712,5.712
		c0,0.447,0.051,0.884,0.148,1.302c-4.747-0.237-8.957-2.513-11.773-5.969c-0.492,0.844-0.773,1.824-0.773,2.871
		c0,1.982,1.008,3.73,2.541,4.755c-0.936-0.028-1.817-0.286-2.587-0.714c0,0.023,0,0.047,0,0.071c0,2.768,1.969,5.075,4.583,5.601
		c-0.479,0.131-0.984,0.201-1.505,0.201c-0.368,0-0.726-0.036-1.075-0.104c0.727,2.271,2.836,3.922,5.336,3.968
		c-1.955,1.532-4.418,2.444-7.094,2.444c-0.461,0-0.916-0.026-1.363-0.08c2.528,1.621,5.531,2.566,8.756,2.566
		c10.507,0,16.252-8.704,16.252-16.253c0-0.247-0.005-0.493-0.017-0.737C32.185,133.25,33.154,132.243,33.92,131.098z"/>
</g>
</svg>
